<?xml version="1.0" encoding="UTF-8" standalone="no"?>
<!DOCTYPE svg PUBLIC "-//W3C//DTD SVG 1.1//EN" "http://www.w3.org/Graphics/SVG/1.1/DTD/svg11.dtd">
<svg width="100%" height="100%" viewBox="0 0 1935 426" version="1.1" xmlns="http://www.w3.org/2000/svg" xmlns:xlink="http://www.w3.org/1999/xlink" xml:space="preserve" xmlns:serif="http://www.serif.com/" style="fill-rule:evenodd;clip-rule:evenodd;stroke-linejoin:round;stroke-miterlimit:2;">
    <g transform="matrix(1,0,0,1,-306.131,-1106.07)">
        <g id="Layer10" transform="matrix(2.11746,0,0,2.11746,-2835.37,-1894.98)">
            <g id="Layer23">
                <g id="Layer101" serif:id="Layer10">
                    <g transform="matrix(0.241367,0,0,0.153659,1467.72,1175.68)">
                        <rect x="65.856" y="1572.35" width="3786.01" height="1308.21" style="fill:rgb(128,128,128);"/>
                    </g>
                    <g transform="matrix(0.118487,0,0,0.12158,1457.27,1425.47)">
                        <path d="M650.425,1244.5L650.425,158.067L797.901,158.067L1368.54,1011.06L1368.54,158.067L1506.38,158.067L1506.38,1244.5L1358.9,1244.5L788.267,390.768L788.267,1244.5L650.425,1244.5ZM3703.7,863.581L3847.47,899.894C3817.33,1017.97 3763.11,1108.02 3684.8,1170.02C3606.49,1232.02 3510.77,1263.03 3397.63,1263.03C3280.54,1263.03 3185.31,1239.19 3111.94,1191.51C3038.58,1143.84 2982.75,1074.79 2944.46,984.378C2906.17,893.966 2887.02,796.883 2887.02,693.131C2887.02,579.992 2908.64,481.304 2951.87,397.067C2995.1,312.83 3056.61,248.85 3136.4,205.126C3216.19,161.402 3304.01,139.54 3399.86,139.54C3508.55,139.54 3599.95,167.207 3674.06,222.541C3748.17,277.876 3799.8,355.69 3828.95,455.983L3687.4,489.332C3662.2,410.283 3625.64,352.725 3577.72,316.659C3529.79,280.593 3469.52,262.56 3396.89,262.56C3313.39,262.56 3243.61,282.569 3187.53,322.588C3131.46,362.607 3092.06,416.335 3069.33,483.774C3046.6,551.213 3035.24,620.752 3035.24,692.39C3035.24,784.779 3048.7,865.434 3075.63,934.355C3102.56,1003.28 3144.43,1054.78 3201.24,1088.87C3258.06,1122.96 3319.57,1140.01 3385.78,1140.01C3466.31,1140.01 3534.49,1116.79 3590.32,1070.34C3646.14,1023.9 3683.94,954.982 3703.7,863.581ZM4049.05,1244.5L4049.05,158.067L4192.82,158.067L4192.82,1244.5L4049.05,1244.5ZM4756.78,1244.5L4335.85,158.067L4491.48,158.067L4773.83,947.324C4796.56,1010.56 4815.58,1069.85 4830.89,1125.18C4847.69,1065.9 4867.21,1006.61 4889.44,947.324L5182.91,158.067L5329.65,158.067L4904.26,1244.5L4756.78,1244.5ZM2212.26,142.759C2530.29,142.759 2788.48,393.837 2788.48,703.095C2788.48,1012.35 2530.29,1263.43 2212.26,1263.43C1894.24,1263.43 1636.04,1012.35 1636.04,703.095C1636.04,393.837 1894.24,142.759 2212.26,142.759ZM2215.87,264.517C1970.53,264.517 1771.34,458.988 1771.34,698.522C1771.34,938.056 1970.53,1132.53 2215.87,1132.53C2461.22,1132.53 2660.4,938.056 2660.4,698.522C2660.4,458.988 2461.22,264.517 2215.87,264.517ZM6137.38,863.581L6281.15,899.894C6251.01,1017.97 6196.79,1108.02 6118.48,1170.02C6040.17,1232.02 5944.45,1263.03 5831.31,1263.03C5714.22,1263.03 5618.99,1239.19 5545.62,1191.51C5472.25,1143.84 5416.42,1074.79 5378.13,984.378C5339.85,893.966 5320.7,796.883 5320.7,693.131C5320.7,579.992 5342.32,481.304 5385.55,397.067C5428.78,312.83 5490.28,248.85 5570.08,205.126C5649.87,161.402 5737.69,139.54 5833.53,139.54C5942.23,139.54 6033.62,167.207 6107.73,222.541C6181.84,277.876 6233.47,355.69 6262.62,455.983L6121.07,489.332C6095.88,410.283 6059.32,352.725 6011.39,316.659C5963.47,280.593 5903.19,262.56 5830.57,262.56C5747.07,262.56 5677.29,282.569 5621.21,322.588C5565.14,362.607 5525.73,416.335 5503.01,483.774C5480.28,551.213 5468.92,620.752 5468.92,692.39C5468.92,784.779 5482.38,865.434 5509.31,934.355C5536.23,1003.28 5578.1,1054.78 5634.92,1088.87C5691.74,1122.96 5753.25,1140.01 5819.45,1140.01C5899.98,1140.01 5968.16,1116.79 6023.99,1070.34C6079.82,1023.9 6117.61,954.982 6137.38,863.581ZM6958.01,142.759C7276.03,142.759 7534.23,393.837 7534.23,703.095C7534.23,1012.35 7276.03,1263.43 6958.01,1263.43C6639.98,1263.43 6381.79,1012.35 6381.79,703.095C6381.79,393.837 6639.98,142.759 6958.01,142.759ZM6961.62,264.517C6716.28,264.517 6517.09,458.988 6517.09,698.522C6517.09,938.056 6716.28,1132.53 6961.62,1132.53C7206.96,1132.53 7406.15,938.056 7406.15,698.522C7406.15,458.988 7206.96,264.517 6961.62,264.517ZM5277.09,1148.13L5277.09,1217.63C5277.09,1236.81 5261.11,1252.38 5241.43,1252.38L5170.12,1252.38C5150.44,1252.38 5134.47,1236.81 5134.47,1217.63L5134.47,1148.13C5134.47,1128.96 5150.44,1113.39 5170.12,1113.39L5241.43,1113.39C5261.11,1113.39 5277.09,1128.96 5277.09,1148.13Z" style="fill:none;stroke:white;stroke-width:32.78px;"/>
                    </g>
                    <g id="Layer20" transform="matrix(0.12062,0,1.21739e-17,0.12062,1543.3,1352.16)">
                        <path d="M1743.12,1324.97C1741.67,1326.53 1740.29,1327.9 1739.02,1329.03C1685.88,1375.88 1682.85,1400.53 1681.97,1415.64C1680.76,1436.51 1691.95,1466.12 1699.95,1490.7C1705.59,1508.03 1700.28,1540.81 1696.21,1549.58C1690.14,1562.64 1667.9,1577.38 1667.9,1577.38C1667.9,1577.38 1671.24,1608.26 1671.61,1630.71C1672.04,1657.4 1671.95,1682.08 1666.19,1705.39C1664.37,1712.78 1642.93,1719.78 1617.87,1733.7C1610.22,1737.94 1583.1,1749.57 1554.25,1753.73C1525,1757.94 1496.42,1762.81 1496.42,1762.81C1496.42,1762.81 1498.71,1722.76 1501.97,1720C1507.98,1714.9 1517.23,1706.62 1523.7,1700.69L1445.88,1689.44C1445.88,1689.44 1433.19,1704.88 1408.25,1711.63C1398.68,1714.23 1373.02,1720.38 1353.44,1716.35C1335.72,1712.7 1313.08,1691.16 1313.08,1691.16C1313.08,1691.16 1290.88,1687.28 1285.89,1686.63C1280.9,1685.98 1262.6,1687.04 1262.6,1687.04L1266.91,1703.12L1242.77,1690.85C1242.77,1690.85 1175.59,1656.33 1174.44,1648.22C1161.68,1638.31 1065.68,1561.29 1032.97,1460.45C964.82,1250.37 1034.63,1124.35 1115.85,1031.48C1229.05,902.029 1408.92,866.37 1512.69,877.627C1616.47,888.883 1763.62,943.739 1839.39,1067.2C1875.64,1126.29 1898.09,1192.49 1903.62,1253.13C1909.66,1319.22 1903.92,1368.8 1889.04,1421.59C1856.19,1538.11 1781.07,1604.83 1781.07,1604.83C1781.07,1604.83 1780.94,1480.81 1773.65,1427.39C1770.31,1402.9 1745.69,1332.31 1743.12,1324.97ZM1286.26,1359.89C1294.15,1341.76 1304.28,1317.35 1312.19,1298.01C1307.78,1298.01 1299.88,1298.25 1296.09,1299.93C1290.68,1302.33 1282.76,1307.15 1278.56,1319.91C1275.12,1330.37 1275.07,1339.26 1278.2,1347.28C1281.69,1356.23 1286.26,1359.89 1286.26,1359.89ZM1185.05,1640.69C1184.72,1645.54 1228.73,1682.43 1246.54,1681.02C1260.77,1679.9 1275.3,1678.59 1285.11,1679.41C1300.24,1680.67 1336.17,1688.23 1368.48,1685.72C1385.33,1684.41 1425.12,1679.55 1442.62,1681.46C1460.11,1683.38 1531.8,1693.56 1531.8,1693.56L1531.65,1693.71C1537.38,1694.83 1593.41,1704.99 1619.74,1681.44C1632.18,1670.32 1640.74,1648.25 1629.75,1624.26C1628.33,1621.13 1625.4,1618.3 1621.74,1615.77C1611.47,1613.86 1595.67,1611.36 1581.1,1610.08C1529.21,1605.51 1474.09,1613.27 1457.81,1615.54C1438.79,1618.18 1393.15,1635.26 1357.11,1629.2C1347.04,1627.51 1303.29,1606.67 1291.04,1604.57C1276.53,1602.08 1221.76,1596.15 1200.68,1593.91C1197.83,1598.52 1193.73,1605.45 1191.87,1610.05C1186,1624.58 1185.12,1640.63 1185.12,1640.63L1185.05,1640.69ZM1213.16,1608.56C1217.3,1606.37 1268.14,1611.9 1281.54,1616.51C1294.95,1621.12 1356.76,1640.21 1373.54,1642.6C1397.94,1646.06 1454.36,1627.06 1493.51,1623.38C1528.83,1620.07 1579.04,1622.8 1596.35,1632.2C1614.94,1642.3 1607.36,1676.76 1560.62,1671.12C1512.42,1665.3 1465.62,1661.57 1425.66,1661.13C1407.49,1660.93 1343.63,1660.9 1320.76,1661.79C1302.62,1662.49 1264.82,1670.58 1240.87,1667.14C1216.92,1663.71 1214.01,1655.95 1212.07,1647.11C1209.35,1634.68 1211.43,1609.48 1213.16,1608.56ZM1789.96,1125.38C1789.61,1131.82 1788.76,1146.87 1787.74,1160.86C1790.15,1160.12 1793.5,1159.3 1797.09,1159.06C1805.88,1158.49 1816.36,1160.53 1820.69,1165.68C1829.36,1176 1829.31,1182.26 1829.16,1188.19C1828.95,1196.51 1815.35,1211.65 1813.29,1219.34C1810.31,1230.45 1821.93,1251.89 1821.47,1260.8C1821.01,1269.71 1816.18,1298.77 1802.06,1300.53C1788.43,1302.23 1773.75,1294.01 1766.44,1289.15L1766.3,1289.63C1765.45,1292.62 1763.3,1296.9 1760.46,1301.61C1760.46,1301.61 1771.14,1329.24 1787.26,1342.6C1805.23,1357.5 1829.32,1357.41 1844.83,1340.79C1863.35,1320.95 1855.71,1258.36 1858.29,1227.42C1859.38,1214.36 1875.47,1172.19 1868.51,1155.26C1862.9,1141.6 1856.55,1123.5 1835.85,1116C1819.35,1110.03 1790.13,1125.39 1790.13,1125.39L1789.96,1125.38ZM1773.47,1265.21C1779.4,1270.27 1787.74,1276.43 1793.32,1276.62C1801.36,1276.89 1807.33,1265.46 1804.88,1256.95C1801.77,1246.11 1794.3,1228.31 1794.98,1220.65C1796.43,1204.32 1807.29,1192.69 1803.58,1186.7C1799.45,1180.02 1790.69,1183.77 1785.22,1187.08C1784.45,1193.86 1782.73,1216.94 1780.79,1230.69C1779.11,1242.65 1776.23,1254.91 1773.47,1265.21ZM1451.45,1180.33C1450.88,1189.28 1448.74,1223.84 1448.71,1236.13C1448.65,1264.86 1434.65,1381.21 1422.02,1386.61C1407.74,1392.72 1365.86,1395.44 1354.53,1390.02C1343.2,1384.59 1341.93,1375.01 1343.16,1367.7C1344.39,1360.4 1391.78,1233.35 1395.17,1157.1C1397.26,1110.26 1397.45,1077.2 1389.18,1061.25C1377.83,1039.36 1351.87,1033.21 1332.44,1037.8C1303.87,1044.55 1292,1075.02 1292,1075.02L1290.93,1075.44C1296.84,1075.85 1302.52,1076.55 1308.05,1077.27C1326.11,1079.62 1359.41,1099.33 1367.51,1123.58C1374.12,1143.37 1372.8,1160.43 1363.1,1169.11C1349.14,1181.6 1327.8,1178.88 1327.8,1178.88C1327.8,1178.88 1318.47,1186.49 1305,1189.79C1290.85,1193.24 1227.46,1189.39 1205.91,1173.23C1204.37,1172.07 1203.29,1169.27 1203.84,1166.91C1205.62,1159.38 1215.7,1146.09 1231.24,1134.58C1241.65,1126.87 1254.48,1121.34 1257.93,1123.92C1266.36,1130.25 1265.73,1139.2 1270.41,1141.27C1273.07,1142.45 1283.8,1145.78 1290.97,1138.59C1297.13,1132.41 1294.05,1115.95 1301.64,1114.67C1308.55,1113.51 1324.11,1117.54 1333.03,1126.94C1342.5,1136.93 1348.62,1163.5 1348.62,1163.5C1348.62,1163.5 1361.85,1156.24 1359.8,1146.93C1357.76,1137.62 1348.29,1104.31 1314.85,1093.48C1288.02,1084.8 1277.14,1088.49 1262.53,1092.08C1243.99,1096.63 1212.59,1114.58 1204.6,1123.71C1196.9,1132.51 1191.46,1139.07 1188.87,1149.56C1185.33,1163.9 1196.76,1187.15 1196.76,1187.15C1196.76,1187.15 1193.75,1187.2 1191.55,1185.78C1189.97,1184.76 1189.34,1181.95 1188.08,1182.59C1184.06,1184.66 1173.76,1190.59 1172.65,1199.53C1171.54,1208.47 1182.87,1223.81 1195.01,1226.15C1210.25,1229.09 1251.23,1218.39 1260.85,1219.98C1270.47,1221.56 1323.14,1232.9 1331.63,1232.12C1339.6,1231.38 1358.01,1224.61 1359.9,1209.4C1360.49,1204.69 1346.89,1190.13 1346.89,1190.13L1360.39,1186.12C1360.39,1186.12 1371.36,1195.37 1372.94,1207.62C1373.61,1212.81 1370.56,1223.46 1362.24,1231.48C1359.26,1234.35 1354.11,1237.5 1348.69,1240.06L1337.89,1271.09C1337.89,1271.09 1299.18,1357.98 1291.47,1382.12C1288.04,1392.86 1286.04,1401.64 1292.61,1415.83C1297.4,1426.2 1305.64,1436.35 1318.68,1439.76C1324.22,1441.2 1364.01,1436.86 1377.95,1435.51C1391.58,1434.19 1415.08,1435.44 1421.93,1434.6C1438.89,1432.54 1468.08,1412.28 1473.19,1385.98C1473.8,1382.85 1475.24,1377.62 1475.77,1371.19C1477.79,1346.4 1475.83,1319.35 1475.83,1319.35L1486.64,1319.14C1486.64,1319.14 1489.56,1364.24 1490.03,1376.45C1490.25,1381.99 1489.35,1393.05 1489.35,1393.05C1499.12,1393.66 1547.89,1395.79 1559.27,1378.79C1564.65,1370.75 1554.38,1346.92 1539.52,1331.61C1512.14,1303.42 1475.56,1309.48 1475.56,1309.48L1474.55,1286.15C1474.55,1286.15 1502.52,1285.52 1538.02,1287.48C1552.69,1288.29 1592.21,1308.87 1622.19,1308.62C1643.57,1308.43 1667.82,1276.7 1680.96,1246.78C1698.19,1207.56 1707.63,1152.83 1700.61,1117.09C1695.59,1091.55 1690.41,1071.62 1660.32,1049.02C1649.27,1040.73 1620.07,1026.09 1592.72,1021.24C1558.35,1015.14 1526.4,1018.78 1514.19,1022.26C1483.12,1031.13 1485.46,1062.86 1485.46,1062.86C1485.46,1062.86 1524.41,1049.37 1567.34,1058.8C1595.6,1065.01 1605.36,1075.42 1612.1,1084.72C1618.62,1093.7 1620.68,1116.65 1620.68,1116.65L1604.25,1109.29C1604.25,1109.29 1603.89,1103.58 1600.49,1097.64C1598.88,1094.84 1585.32,1084.2 1572.84,1080.7C1563.04,1077.96 1552.67,1074.35 1531.46,1074.91C1504.57,1075.61 1475.55,1084.96 1467.07,1098.26C1462.55,1105.34 1461.78,1116.67 1461.78,1116.67C1461.78,1116.67 1481.81,1107.46 1519.39,1105.01C1542.37,1103.51 1566.25,1106.17 1579.72,1109.93C1592.23,1113.42 1608.27,1119.93 1618.18,1128.78C1634.22,1143.1 1640.52,1164.93 1639.46,1174.53C1639,1178.72 1635.9,1184.45 1628.87,1186.07C1622.5,1187.53 1615.92,1187.76 1615.92,1187.76C1615.92,1187.76 1612.92,1192.76 1606.36,1195.46C1594.44,1200.38 1559.45,1210.24 1530.38,1210.18C1519.79,1210.16 1503.44,1206.73 1493.71,1203.27C1487.98,1201.23 1484.15,1198.49 1484.15,1198.49C1484.15,1198.49 1470.5,1213.72 1470.12,1227.12C1469.91,1234.73 1476.06,1243.06 1489.08,1243.03C1501.98,1243.01 1538.51,1235.19 1555.67,1235.43C1572.83,1235.67 1604.79,1250.21 1619.59,1243.61C1631.23,1238.42 1639.18,1224.7 1638.56,1213.17C1637.96,1202.02 1628.96,1195.9 1628.96,1195.9C1628.96,1195.9 1637.25,1193.89 1641.03,1191.37C1643.28,1189.87 1645.29,1188.07 1645.29,1188.07C1645.29,1188.07 1658.93,1197.89 1658.08,1216.78C1657.43,1231.18 1641.59,1257.38 1619.67,1258.68C1589.22,1260.48 1573.59,1248.6 1557.68,1247.27C1539.72,1245.76 1503.05,1255.2 1483.93,1251.92C1469.15,1249.39 1464.29,1240.56 1461.51,1232.29C1459.46,1226.2 1461.21,1218.45 1461.99,1216.04C1466.25,1202.79 1474.24,1191.15 1474.24,1191.15C1474.24,1191.15 1471.72,1189.08 1469.71,1184.47C1467.38,1179.1 1466.53,1172.34 1466.53,1172.34C1466.53,1172.34 1482.99,1156.1 1497,1149.02C1503.57,1145.69 1513.81,1144.49 1513.81,1144.49C1513.81,1144.49 1510.99,1147.27 1510.71,1152.33C1510.37,1158.6 1515.29,1173.8 1531.35,1177.42C1539.47,1179.25 1543.6,1177.51 1549.26,1176.19C1557.3,1174.32 1563.47,1167.34 1564.96,1160.65C1566.89,1151.96 1561.4,1144.09 1561.4,1144.09C1561.4,1144.09 1572.48,1147.86 1584.18,1153.82C1602.83,1163.32 1615.05,1175.49 1615.05,1175.49C1615.05,1175.49 1618.18,1175.46 1620.54,1174.12C1622.54,1172.99 1623.46,1170.96 1623.72,1166.75C1624.26,1158.03 1614.1,1147.18 1605.51,1138.89C1598.66,1132.28 1577.89,1123.79 1568.19,1121.64C1558.49,1119.49 1546.21,1119.06 1534.92,1119.54C1521.21,1120.13 1496.23,1122.16 1469.19,1135.23C1465.66,1136.93 1449.91,1146.89 1450.13,1162C1450.26,1170.66 1459.67,1173.97 1459.67,1173.97C1459.67,1173.97 1459.89,1177.28 1460.22,1179.02C1460.56,1180.75 1461.69,1184.38 1461.69,1184.38C1461.69,1184.38 1456.77,1184.15 1451.45,1180.33ZM1347.45,929.2C1368.43,930.148 1407.85,932.471 1422.5,936.994C1440.13,942.433 1497.06,973.903 1513.12,975.62C1528.56,977.271 1578.48,964.176 1593.69,966.114C1612.86,968.555 1629.59,977.049 1638.71,984.977C1648.58,993.558 1651.52,1001.96 1653.4,1009.7C1668.44,1016.21 1691.61,1044.19 1705.92,1067.31C1735.1,1114.48 1737.64,1153.26 1738.09,1188.59C1738.44,1216.25 1742.07,1230.25 1732.99,1250.99C1721.79,1276.6 1664.67,1328.15 1647.23,1345.25C1582.78,1408.48 1571.99,1435.33 1560.58,1484.18C1555.25,1506.96 1549.23,1523.35 1549.23,1523.35L1549.08,1523.9L1549.12,1523.91C1549.12,1523.91 1624.07,1554.85 1634.6,1561.7C1638.91,1564.51 1644.99,1571.52 1644.99,1571.52C1644.99,1571.52 1651.19,1569.13 1665.49,1560.2C1668.24,1558.48 1675.74,1550.59 1678.31,1546.16C1686.08,1532.73 1689.57,1511.54 1683.64,1494.27C1675.77,1471.3 1661.7,1417.89 1671.27,1385.92C1680.35,1355.6 1731.11,1312.77 1743.63,1298.38C1756.36,1283.76 1769.86,1214.11 1771.84,1189.12C1773.28,1170.9 1776.27,1132.67 1777.78,1113.31C1777.6,1105.19 1776.77,1093.61 1774.02,1081.63C1766.6,1049.29 1751.88,1021.23 1734.51,999.013C1700.07,954.981 1560.26,881.157 1462.96,891.771C1402,898.421 1349.37,928.555 1349.37,928.555C1349.37,928.555 1348.7,928.774 1347.45,929.2ZM1451.16,1496.66C1450.79,1496.88 1444.48,1500.88 1438.25,1505.76C1432.69,1510.1 1425.02,1517.5 1418.21,1522.83C1411.58,1528.02 1404.29,1530.18 1399.72,1531.25C1388.3,1533.92 1371.74,1530.09 1349.85,1517.18C1336.69,1509.42 1322.31,1506.97 1301.25,1507.41C1278.6,1507.87 1237.79,1523.22 1218.82,1532.19C1210.65,1536.05 1203.05,1540.86 1197.82,1544.44C1194.27,1548.92 1190.34,1551.68 1188.62,1558.8C1187.85,1561.98 1186.93,1568.11 1188.19,1571.55C1188.46,1572.32 1188.79,1573.06 1189.14,1573.78C1207.13,1581.29 1230.71,1584.95 1240.22,1586.16C1255.64,1588.13 1280.38,1586.17 1295.63,1588.75C1307.51,1590.75 1344.22,1614.94 1368.85,1617.97C1385.12,1619.97 1452.69,1603.57 1466.51,1600.55C1471.85,1599.38 1497.31,1597.88 1524.82,1598.48C1555.75,1599.15 1593.83,1599.47 1613.37,1599.59C1616.09,1599.18 1618.59,1598.72 1620.6,1598.23C1628.96,1596.15 1635.89,1582.56 1637.08,1579.18C1638.27,1575.81 1631.76,1571.4 1627.74,1569.33C1614.3,1562.41 1574.58,1547.02 1556.47,1537.65C1553.64,1536.18 1550.3,1534.21 1546.81,1532.03L1546.64,1532.62C1546.64,1532.62 1494.88,1498.53 1478.63,1493.83C1466.17,1490.23 1456.18,1494.73 1456.18,1494.73C1456.18,1494.73 1453.68,1473.37 1452.97,1465.12C1452.46,1459.16 1452.02,1447.76 1451.94,1445.63C1447.17,1447.87 1441.73,1449.87 1436.5,1450.56C1423.32,1452.31 1402.08,1449.58 1402.08,1449.58C1402.08,1449.58 1400.73,1479.13 1398.84,1485.21C1395.87,1494.74 1390.92,1497.74 1385.67,1497.49C1375.14,1496.98 1373.03,1493.35 1368.11,1478.43C1364.44,1467.32 1365.2,1446.88 1365.2,1446.88C1365.2,1446.88 1330.73,1449.71 1323.22,1448.94C1307.75,1447.35 1290.1,1436.81 1285.5,1427.87C1282.58,1422.17 1278.42,1411.59 1277.52,1403.2C1276.07,1389.61 1278.81,1377.08 1279.54,1374.06C1275.34,1370.25 1266.04,1361.2 1263.83,1353.89C1259.99,1341.2 1258.56,1322.27 1267.18,1305.56C1273.96,1292.41 1278.34,1291.23 1285.94,1288.25C1291.77,1285.96 1310.62,1283.52 1318.47,1282.58C1320.55,1277.42 1322.24,1273.21 1323.36,1270.37C1323.36,1270.37 1315.92,1270.72 1308.01,1271.7C1301.47,1272.52 1293.25,1274.62 1290.59,1274.81C1289.23,1274.91 1281.53,1250.22 1281.53,1250.22C1281.53,1250.22 1288.48,1246.37 1308.77,1248.27C1316.11,1248.96 1330.48,1252.51 1330.48,1252.51L1333.1,1244.92C1316.4,1245.86 1271.23,1237.48 1259.67,1232.15C1254.85,1229.92 1231.34,1239.56 1212.09,1239.55C1210.93,1239.55 1197.89,1241.04 1186.99,1236.74C1176.09,1232.44 1157.55,1215.85 1160,1199.08C1162.85,1179.57 1182.09,1171.9 1182.09,1171.9C1182.09,1171.9 1173.74,1151.59 1177.43,1141.71C1178.89,1137.8 1182.72,1130.41 1188.72,1122.07C1187.38,1120.68 1166.11,1099.55 1144.49,1132.56C1130.18,1154.41 1160.48,1238.49 1163.43,1253.71C1165.46,1264.15 1160.42,1335.12 1177.31,1337.07C1183.14,1337.73 1196.44,1327.77 1204.72,1320.98C1204.72,1320.94 1202.12,1269.77 1201.22,1265.09C1200.33,1260.41 1198.37,1247.07 1198.37,1247.07L1211.39,1248.87C1211.76,1249.09 1210.44,1262.87 1210.18,1268.91C1209.85,1276.52 1211.84,1314.92 1211.84,1314.92L1211.87,1315.03C1212.34,1317.18 1220.06,1351.87 1231.62,1364.5C1231.83,1364.71 1232.02,1364.94 1232.21,1365.16L1232.14,1364.57C1232.14,1364.57 1252.82,1388.01 1260.8,1400.64C1268.87,1413.41 1276.88,1435.57 1281.27,1448.24C1287.06,1464.99 1323.56,1498.73 1323.56,1498.73C1323.56,1498.73 1344.37,1504.2 1365.2,1515.85C1383.78,1526.23 1392.11,1523.33 1398.48,1523.03C1406.01,1522.66 1420.87,1512.36 1433.8,1499.93C1442.82,1491.27 1450.08,1487.3 1450.08,1487.3L1451.16,1496.66ZM1224.33,1559.33C1236.87,1551.87 1266.6,1540.66 1294,1540.38C1318.96,1540.13 1351.5,1552.45 1379.7,1557.1C1393.61,1559.39 1410.06,1555.33 1412.11,1554.34C1424.86,1548.12 1458.86,1519.67 1470.24,1517.92C1491.44,1514.66 1528.33,1547.18 1542.65,1553.72C1554.26,1559.02 1607.16,1579.42 1608.63,1586.09C1609.76,1591.22 1562.49,1585.59 1548.54,1583.81C1487.26,1576 1461.17,1582.45 1448.34,1584.39C1435.52,1586.33 1405.44,1597.85 1390.02,1598.4C1374,1598.98 1355.99,1597.82 1341.35,1590.7C1330.96,1585.64 1313.59,1573.42 1309.42,1572.66C1297.51,1570.51 1243.76,1570.07 1234.5,1567.82C1225.24,1565.57 1220.87,1561.39 1224.33,1559.33ZM1204.9,1527.71C1210.44,1524.92 1226.94,1516.68 1233.5,1513.83C1238.95,1511.46 1250.67,1507.95 1250.67,1507.95C1250.67,1507.95 1260.37,1442.67 1252.96,1419.63C1249.45,1408.7 1240.46,1396.59 1236.71,1391.83L1236.64,1392.07C1236.64,1392.07 1219.23,1477.46 1204.9,1527.71ZM1201.95,1106.42C1209.78,1098.55 1219.33,1091.16 1230.42,1086.19C1231.93,1074.31 1235.85,1053.97 1245.79,1040.61C1253.09,1030.8 1292.32,989.425 1329.81,990.16C1367.3,990.894 1399.06,1009.45 1413.56,1035.52C1427.15,1059.92 1427.91,1144.75 1427.27,1159.01C1424.06,1231.31 1378.75,1382.88 1378.75,1382.88C1378.75,1382.88 1405.75,1385.69 1411.26,1378.94C1413.07,1376.73 1425.96,1352.05 1431.91,1317.26C1441.67,1260.27 1442.32,1187.08 1442.33,1168.65C1442.17,1168.3 1442.02,1167.94 1441.88,1167.58C1439.49,1161.64 1439.72,1146.07 1441.91,1139.57C1444.78,1131.05 1450.05,1125.88 1450.05,1125.88C1450.05,1125.88 1450.7,1106.58 1454.32,1095.84C1459.21,1081.36 1470.01,1072.9 1470.01,1072.9C1470.01,1072.9 1468.56,1046.03 1474.57,1035.31C1481.45,1023.04 1501.39,1009.24 1525.53,1005.77C1556.5,1001.31 1587.71,1006.45 1599.01,1009.47C1602.39,1010.38 1614.24,1003.2 1635.53,1005.63C1634.79,1003.98 1633.42,1001.32 1631.6,999.77C1624.4,993.614 1620.83,988.857 1596.89,984.781C1565.38,979.418 1540.1,992.885 1523.26,992.122C1520.5,991.996 1502.48,992.072 1488.88,985.519C1448.17,965.897 1418.29,951.841 1405.67,950.207C1399.32,949.384 1370.2,945.303 1344.28,946.416C1316.02,947.631 1292.28,954.323 1279.5,958.69C1269.83,963.908 1260.2,969.689 1251.41,975.94C1207.52,1007.15 1202.5,1091.12 1201.95,1106.42Z" style="fill:white;"/>
                    </g>
                    <g transform="matrix(0.159799,0,0,0.103523,1822.83,1387.96)">
                        <text x="359.525px" y="2151.62px" style="font-family:'ArialMT', 'Arial', sans-serif;font-size:227.831px;fill:white;">NOTHING OF CIVILIZA<tspan x="2760.31px 2899.48px " y="2151.62px 2151.62px ">TI</tspan>ON</text>
                    </g>
                </g>
            </g>
        </g>
    </g>
</svg>
